# xmcd
#
# Track frame offsets: 
#        150
#        19197
#        35260
#        53114
#        78729
#        103070
#        121901
#        141301
#        157121
#        176762
#        194333
#        216742
#        236409
#        255696
#        276638
#        298711
#        313118
#
# Disc length: 4560 seconds
#
# Revision: 0
# Processed by: cddbd v1.5.2PL0 Copyright (c) Steve Scherf et al.
# Submitted via: ExactAudioCopy v0.99pb4
#
DISCID=0e11ce11
DTITLE=Andriana Mpampali - I Kassetta Mou
DYEAR=2007
DGENRE=A Cappella
TTITLE0=Enjoy THe Silence (Depeche Mode)
TTITLE1=Everyday is lik sunday (Morrissey)
TTITLE2=The man who sold the world (DAvid Bowie)
TTITLE3=People Aint No Good (Nick Cave and The bad seeds)
TTITLE4=A song for the lovers (Richard Ashcroft)
TTITLE5=Without you im nothing (Placebo)
TTITLE6=Fisherman's Blues (The waterboys)
TTITLE7=Call Me (Blondie)
TTITLE8=Dont you (Simple Minds)
TTITLE9=Manchild (Neneh Cherry)
TTITLE10=Bellissimo (Ilya)
TTITLE11=Do you really want to hurt me(Culture club)
TTITLE12=Slave to love (Bryan Ferry)
TTITLE13=Im not in love (Fun Loving Criminals)
TTITLE14=Love is Blindness (Cassandra Wilson)
TTITLE15=Unforgetable (Nat King Cole)
TTITLE16=This Love (Craig Armstrong)
EXTD=
EXTT0=
EXTT1=
EXTT2=
EXTT3=
EXTT4=
EXTT5=
EXTT6=
EXTT7=
EXTT8=
EXTT9=
EXTT10=
EXTT11=
EXTT12=
EXTT13=
EXTT14=
EXTT15=
EXTT16=
PLAYORDER=
